<svg width="352" height="512" viewBox="0 0 352 512" fill="none" xmlns="http://www.w3.org/2000/svg">
<path d="M0 0H80L128 512H0V0Z" fill="#F6F7FA"/>
<path d="M70.4756 254L68.1631 257.177L45.959 287.68H55.0918V277.2H71.3506V287.68H80.4844V302.24H71.3506V314H54.6904V302.24H24.4844V290.857L24.8799 290.326L51.3203 254.806L51.9209 254H70.4756Z" fill="#EEEFF2" stroke="white" stroke-width="4"/>
<path d="M256 64H352V464H240L256 64Z" fill="#F6F7FA"/>
<path d="M316.991 250L314.679 253.177L292.475 283.68H301.607V273.2H317.866V283.68H327V298.24H317.866V310H301.206V298.24H271V286.857L271.396 286.326L297.836 250.806L298.437 250H316.991Z" fill="#EEEFF2" stroke="white" stroke-width="4"/>
<path d="M128 112H240L208 400H128V112Z" fill="#F6F7FA"/>
<path d="M176.125 220.04C183.581 220.04 190.15 222.883 194.828 228.292C199.485 233.677 202.125 241.432 202.125 251.04C202.125 260.649 199.485 268.404 194.828 273.788C190.15 279.197 183.581 282.04 176.125 282.04C168.707 282.04 162.14 279.195 157.454 273.79C152.787 268.407 150.125 260.653 150.125 251.04C150.125 241.427 152.787 233.673 157.454 228.29C162.14 222.885 168.707 220.04 176.125 220.04ZM176.125 235.016C173.568 235.016 171.489 236.023 169.955 238.352C168.342 240.799 167.245 244.853 167.245 251.04C167.245 257.227 168.342 261.281 169.955 263.729C171.489 266.057 173.568 267.064 176.125 267.064C178.731 267.064 180.827 266.049 182.367 263.725C183.987 261.279 185.085 257.228 185.085 251.04C185.085 244.852 183.987 240.801 182.367 238.355C180.827 236.031 178.731 235.016 176.125 235.016Z" fill="#EEEFF2" stroke="white" stroke-width="4"/>
</svg>
