<svg width="352" height="512" viewBox="0 0 352 512" fill="none" xmlns="http://www.w3.org/2000/svg">
<path d="M128 112H240L208 400H128V112Z" fill="#F6F7FA"/>
<path d="M176.125 220.04C183.581 220.04 190.15 222.883 194.828 228.292C199.485 233.677 202.125 241.432 202.125 251.04C202.125 260.649 199.485 268.404 194.828 273.788C190.15 279.197 183.581 282.04 176.125 282.04C168.707 282.04 162.14 279.195 157.454 273.79C152.787 268.407 150.125 260.653 150.125 251.04C150.125 241.427 152.787 233.673 157.454 228.29C162.14 222.885 168.707 220.04 176.125 220.04ZM176.125 235.016C173.568 235.016 171.489 236.023 169.955 238.352C168.342 240.799 167.245 244.853 167.245 251.04C167.245 257.227 168.342 261.281 169.955 263.729C171.489 266.057 173.568 267.064 176.125 267.064C178.731 267.064 180.827 266.049 182.367 263.725C183.987 261.279 185.085 257.228 185.085 251.04C185.085 244.852 183.987 240.801 182.367 238.355C180.827 236.031 178.731 235.016 176.125 235.016Z" fill="#EEEFF2" stroke="white" stroke-width="4"/>
<path d="M256 64H352V464H240L256 64Z" fill="#F6F7FA"/>
<path d="M301 249C308.456 249 315.025 251.843 319.703 257.252C324.36 262.636 327 270.391 327 280C327 289.609 324.36 297.364 319.703 302.748C315.025 308.157 308.456 311 301 311C293.582 311 287.015 308.155 282.329 302.75C277.662 297.367 275 289.613 275 280C275 270.387 277.662 262.633 282.329 257.25C287.015 251.845 293.582 249 301 249ZM301 263.976C298.443 263.976 296.364 264.983 294.83 267.312C293.217 269.759 292.12 273.813 292.12 280C292.12 286.187 293.217 290.241 294.83 292.688C296.364 295.017 298.443 296.024 301 296.024C303.606 296.024 305.702 295.009 307.242 292.685C308.862 290.239 309.96 286.188 309.96 280C309.96 273.812 308.862 269.761 307.242 267.315C305.702 264.991 303.606 263.976 301 263.976Z" fill="#EEEFF2" stroke="white" stroke-width="4"/>
<path d="M0 0H80L128 512H0V0Z" fill="#F6F7FA"/>
<path d="M72.2002 254V268.4H48.6816L48.1318 275.04H50.5195C59.0635 275.04 65.3718 276.955 69.5723 280.465C73.8272 284.02 75.6396 288.976 75.6396 294.4C75.6396 299.866 73.6222 305.073 69.3301 308.894C65.0523 312.701 58.7122 314.96 50.3604 314.96C42.2989 314.96 33.705 312.729 27.8467 308.594L26.4238 307.59L27.2227 306.043L32.3428 296.123L33.4307 294.015L35.3252 295.443C39.1809 298.353 44.5858 300.08 50.04 300.08C53.0371 300.08 55.2103 299.445 56.5732 298.504C57.8556 297.618 58.5195 296.407 58.5195 294.8C58.5195 293.118 58.0217 292.018 56.7344 291.196C55.2392 290.242 52.457 289.52 47.4805 289.52H30.9688L31.168 287.338L34.0479 255.818L34.2148 254H72.2002Z" fill="#EEEFF2" stroke="white" stroke-width="4"/>
</svg>
