<svg width="617" height="312" viewBox="0 0 617 312" fill="none" xmlns="http://www.w3.org/2000/svg">
<path d="M616 222H303C303 222 408.291 244.25 450.565 263.525C485.487 279.462 592.631 312 616 312V222Z" fill="#F6F1FE"/>
<rect x="302" width="1" height="312" fill="#EEEFF2"/>
<rect y="221" width="616" height="1" fill="#EEEFF2"/>
<path d="M225.635 54.9956L150.584 87.7052L141.461 92.812L130.31 89.6215L121.686 95.3704L112.553 97.9187L93.2882 100.477L74.0233 103.036L55.7675 106.991L37.5116 110.956L28.3786 117.856L19.2558 121.944L9.62335 120.914L0 119V221H302V32L282.686 37.7489L273.176 40.6234L263.666 41.714L253.014 44.7719L244.645 49.2467L225.635 54.9956Z" fill="#F6F7FA"/>
<path d="M1 118.662L10.1228 120.181L15.9838 121.159C18.1101 121.514 20.2941 121.186 22.222 120.221L28.3786 117.143L36.1254 111.914C37.2057 111.181 38.4168 110.662 39.693 110.385L46.9504 108.836L56.1446 106.879L65.3388 104.911L74.5228 102.954L84.0329 101.048L93.2882 99.9066L102.921 98.3878L113.063 97.2462L119.546 95.9007C121.279 95.538 122.888 94.73 124.214 93.5563L127.455 90.7022C128.429 89.8455 129.65 89.3206 130.942 89.2034C132.234 89.0861 133.529 89.3825 134.642 90.0499L135.569 90.6003C137.187 91.5702 139.042 92.0723 140.928 92.0507C142.814 92.0291 144.657 91.4847 146.252 90.478L149.921 88.1743C150.359 87.8889 150.828 87.6443 151.317 87.4302L159.961 83.6894M300.677 33.0195L291.299 35.8022L281.922 38.5952L273.961 40.9599C273.013 41.2352 272.034 41.3779 271.056 41.3779H264.767C263.696 41.3814 262.634 41.5534 261.617 41.8875L254.074 44.3339C253.361 44.5581 252.688 44.8639 252.056 45.241L245.461 49.1144C244.747 49.5221 243.993 49.8585 243.198 50.093L235.013 52.5291L225.635 55.3118L216.258 59.3687L206.87 63.4255L197.492 67.4824L188.115 71.529L178.727 75.5859M178.727 75.5859L169.349 79.6427L159.971 83.6894L178.727 75.5859Z" stroke="#030911" stroke-width="2.03862" stroke-linecap="round" stroke-linejoin="round"/>
<path d="M301 33.5853C390.249 16.9481 511.267 33.5853 615 137" stroke="#BBC1C5" stroke-width="2.03862" stroke-linecap="round" stroke-dasharray="3.06 6.12"/>
<path d="M300.696 33.7114C390.538 33.7114 411.013 250.992 615.013 250.992" stroke="#030911" stroke-width="2.03862" stroke-linecap="round" stroke-dasharray="3.06 6.12"/>
<path d="M302.5 40C306.09 40 309 37.0899 309 33.5C309 29.9101 306.09 27 302.5 27C298.91 27 296 29.9101 296 33.5C296 37.0899 298.91 40 302.5 40Z" fill="#030911"/>
<path d="M302.5 37.3996C304.654 37.3996 306.4 35.6535 306.4 33.4996C306.4 31.3457 304.654 29.5996 302.5 29.5996C300.346 29.5996 298.6 31.3457 298.6 33.4996C298.6 35.6535 300.346 37.3996 302.5 37.3996Z" fill="white"/>
<path d="M219.28 206.703C219.28 205.153 220.12 204.133 221.3 204.133C222.14 204.133 222.75 204.643 222.97 205.483L224.17 205.073C223.993 204.456 223.614 203.916 223.094 203.54C222.573 203.165 221.941 202.975 221.3 203.003C219.39 203.003 218 204.523 218 206.703C218 208.883 219.39 210.403 221.3 210.403C222.75 210.403 223.75 209.603 224.17 208.333L222.97 207.923C222.75 208.763 222.14 209.273 221.3 209.273C220.12 209.273 219.28 208.253 219.28 206.703ZM224.87 206.703C224.87 208.883 226.27 210.403 228.21 210.403C230.15 210.403 231.55 208.883 231.55 206.703C231.55 204.523 230.15 203.003 228.21 203.003C226.27 203.003 224.87 204.523 224.87 206.703ZM230.27 206.703C230.27 208.263 229.42 209.273 228.21 209.273C227 209.273 226.15 208.263 226.15 206.703C226.15 205.143 227 204.133 228.21 204.133C229.42 204.133 230.27 205.143 230.27 206.703ZM232.32 209.563V210.293H235.84V209.513H233.56L234.4 208.843C235.1 208.283 235.78 207.673 235.78 206.783C235.78 205.843 235.1 205.183 234.05 205.183C233.1 205.183 232.32 205.873 232.32 206.813C232.32 207.003 232.34 207.133 232.42 207.343H233.25C233.192 207.189 233.162 207.027 233.16 206.863C233.16 206.363 233.51 205.953 234.03 205.953C234.56 205.953 234.89 206.323 234.89 206.843C234.89 207.473 234.27 207.973 233.59 208.533L232.32 209.563ZM241.35 210.403C242.4 210.403 243.23 209.853 243.6 208.933L242.57 208.543C242.41 209.083 241.94 209.383 241.35 209.383C240.58 209.383 240.05 208.833 239.95 207.933H243.63V207.533C243.63 206.093 242.83 204.943 241.3 204.943C239.84 204.943 238.8 206.133 238.8 207.673C238.8 209.293 239.85 210.403 241.35 210.403ZM241.29 205.953C242.05 205.953 242.41 206.453 242.42 207.033H240.02C240.19 206.323 240.67 205.953 241.29 205.953ZM245.93 207.213C245.93 206.463 246.46 206.063 246.97 206.063C247.61 206.063 247.85 206.533 247.85 207.183V210.293H249.05V207.213C249.05 206.463 249.58 206.063 250.09 206.063C250.73 206.063 250.97 206.533 250.97 207.183V210.293H252.17V206.833C252.17 205.703 251.47 204.943 250.39 204.943C249.59 204.943 249.09 205.333 248.76 205.673C248.46 205.203 247.93 204.923 247.37 204.943C246.67 204.943 246.22 205.253 245.93 205.603V205.043H244.73V210.293H245.93V207.213ZM253.58 204.343H254.82V203.113H253.58V204.343ZM254.8 205.043H253.6V210.293H254.8V205.043ZM255.69 209.293C256.17 210.013 257.14 210.403 258.11 210.403C259.3 210.403 260.27 209.723 260.27 208.663C260.27 207.463 259.15 207.273 258.26 207.083C257.6 206.943 257.22 206.873 257.22 206.493C257.22 206.143 257.54 205.923 258.02 205.923C258.61 205.923 259.11 206.193 259.41 206.663L260.21 205.933C259.84 205.353 259.01 204.943 258.1 204.943C256.89 204.943 256.05 205.643 256.05 206.603C256.05 207.723 257 207.933 257.83 208.103C258.66 208.273 259.1 208.323 259.1 208.773C259.1 209.243 258.63 209.423 258.12 209.423C257.51 209.423 256.91 209.083 256.6 208.573L255.7 209.293H255.69ZM260.84 209.293C261.31 210.013 262.28 210.403 263.24 210.403C264.44 210.403 265.41 209.723 265.41 208.663C265.41 207.463 264.29 207.273 263.4 207.083C262.74 206.943 262.36 206.873 262.36 206.493C262.36 206.143 262.68 205.923 263.16 205.923C263.75 205.923 264.25 206.193 264.55 206.663L265.35 205.933C264.98 205.353 264.15 204.943 263.24 204.943C262.03 204.943 261.19 205.643 261.19 206.603C261.19 207.723 262.14 207.933 262.97 208.103C263.8 208.273 264.24 208.323 264.24 208.773C264.24 209.243 263.77 209.423 263.26 209.423C262.65 209.423 262.05 209.083 261.74 208.573L260.84 209.293ZM266.51 204.343H267.75V203.113H266.51V204.343ZM267.73 205.043H266.53V210.293H267.73V205.043ZM273.93 207.673C273.93 206.043 272.87 204.943 271.39 204.943C269.91 204.943 268.86 206.043 268.86 207.673C268.86 209.303 269.91 210.403 271.39 210.403C272.87 210.403 273.92 209.303 273.92 207.673H273.93ZM270.07 207.673C270.07 206.603 270.58 205.953 271.39 205.953C272.2 205.953 272.71 206.603 272.71 207.673C272.71 208.743 272.21 209.393 271.39 209.393C270.59 209.393 270.07 208.743 270.07 207.673ZM275.05 210.293H276.25V207.213C276.25 206.463 276.81 206.063 277.35 206.063C278.01 206.063 278.26 206.533 278.26 207.183V210.293H279.46V206.833C279.46 205.703 278.8 204.943 277.71 204.943C277.02 204.943 276.55 205.253 276.26 205.603V205.043H275.06V210.293H275.05ZM280.34 209.293C280.81 210.013 281.78 210.403 282.75 210.403C283.94 210.403 284.91 209.723 284.91 208.663C284.91 207.463 283.79 207.273 282.9 207.083C282.24 206.943 281.86 206.873 281.86 206.493C281.86 206.143 282.18 205.923 282.67 205.923C283.25 205.923 283.75 206.193 284.05 206.663L284.86 205.933C284.48 205.353 283.66 204.943 282.74 204.943C281.53 204.943 280.69 205.643 280.69 206.603C280.69 207.723 281.64 207.933 282.47 208.103C283.3 208.273 283.74 208.323 283.74 208.773C283.74 209.243 283.27 209.423 282.76 209.423C282.15 209.423 281.55 209.083 281.24 208.573L280.34 209.293Z" fill="#56636F"/>
<path d="M219.28 235.703C219.28 234.153 220.12 233.133 221.3 233.133C222.14 233.133 222.75 233.643 222.97 234.483L224.17 234.073C223.993 233.456 223.614 232.916 223.094 232.54C222.573 232.165 221.941 231.975 221.3 232.003C219.39 232.003 218 233.523 218 235.703C218 237.883 219.39 239.403 221.3 239.403C222.75 239.403 223.75 238.603 224.17 237.333L222.97 236.923C222.75 237.763 222.14 238.273 221.3 238.273C220.12 238.273 219.28 237.253 219.28 235.703ZM229.23 238.033V235.433C229.23 234.483 228.49 233.943 227.26 233.943C226.05 233.943 225.13 234.483 225.09 235.693H226.26C226.29 235.233 226.56 234.983 227.19 234.983C227.73 234.983 228.06 235.153 228.06 235.623V235.883L226.61 236.183C225.6 236.393 224.85 236.833 224.85 237.833C224.85 238.773 225.62 239.383 226.62 239.383C227.164 239.412 227.698 239.229 228.11 238.873C228.11 239.023 228.12 239.163 228.14 239.293H229.31C229.252 238.875 229.225 238.454 229.23 238.033ZM228.06 237.443C228.06 238.083 227.44 238.423 226.8 238.423C226.34 238.423 226.04 238.193 226.04 237.783C226.04 237.313 226.42 237.153 226.93 237.043L228.06 236.803V237.443ZM233.63 234.033L233.29 234.013C232.62 234.013 232.09 234.333 231.85 234.823V234.043H230.65V239.293H231.85V236.533C231.85 235.693 232.43 235.203 233.19 235.203C233.36 235.203 233.49 235.213 233.63 235.233V234.033ZM237.37 239.403C238.84 239.403 239.68 238.163 239.68 236.673C239.68 235.183 238.84 233.943 237.38 233.943C237.093 233.931 236.808 233.984 236.544 234.098C236.281 234.212 236.047 234.385 235.86 234.603V232.113H234.66V239.293H235.86V238.743C236.19 239.133 236.69 239.403 237.37 239.403ZM235.83 236.523C235.83 235.533 236.39 234.993 237.13 234.993C238 234.993 238.47 235.673 238.47 236.673C238.47 237.673 238 238.353 237.13 238.353C236.39 238.353 235.83 237.803 235.83 236.833V236.523ZM245.53 236.673C245.53 235.043 244.49 233.943 243.01 233.943C241.53 233.943 240.48 235.043 240.48 236.673C240.48 238.303 241.53 239.403 243.01 239.403C244.49 239.403 245.54 238.303 245.54 236.673H245.53ZM241.69 236.673C241.69 235.603 242.19 234.953 243.01 234.953C243.81 234.953 244.33 235.603 244.33 236.673C244.33 237.743 243.82 238.393 243.01 238.393C242.2 238.393 241.69 237.743 241.69 236.673ZM246.67 239.293H247.87V236.213C247.87 235.463 248.42 235.063 248.97 235.063C249.62 235.063 249.88 235.533 249.88 236.183V239.293H251.08V235.833C251.08 234.703 250.42 233.943 249.32 233.943C248.64 233.943 248.17 234.253 247.87 234.603V234.043H246.67V239.293ZM257.75 234.033L257.41 234.013C256.74 234.013 256.2 234.333 255.97 234.823V234.043H254.77V239.293H255.97V236.533C255.97 235.693 256.55 235.203 257.31 235.203C257.48 235.203 257.6 235.213 257.75 235.233V234.033ZM260.75 239.403C261.79 239.403 262.62 238.853 262.99 237.933L261.96 237.543C261.8 238.083 261.33 238.383 260.74 238.383C259.97 238.383 259.44 237.833 259.34 236.933H263.02V236.533C263.02 235.093 262.22 233.943 260.69 233.943C259.23 233.943 258.19 235.133 258.19 236.673C258.19 238.293 259.24 239.403 260.74 239.403H260.75ZM260.68 234.953C261.44 234.953 261.8 235.453 261.81 236.033H259.41C259.58 235.323 260.06 234.953 260.68 234.953ZM265.32 236.213C265.32 235.463 265.85 235.063 266.36 235.063C267 235.063 267.24 235.533 267.24 236.183V239.293H268.44V236.213C268.44 235.463 268.97 235.063 269.48 235.063C270.12 235.063 270.36 235.533 270.36 236.183V239.293H271.56V235.833C271.56 234.703 270.86 233.943 269.78 233.943C268.98 233.943 268.48 234.333 268.15 234.673C267.85 234.203 267.32 233.923 266.76 233.943C266.06 233.943 265.61 234.253 265.32 234.603V234.043H264.12V239.293H265.32V236.213ZM277.72 236.673C277.72 235.043 276.67 233.943 275.19 233.943C273.71 233.943 272.66 235.043 272.66 236.673C272.66 238.303 273.71 239.403 275.19 239.403C276.67 239.403 277.72 238.303 277.72 236.673ZM273.87 236.673C273.87 235.603 274.37 234.953 275.19 234.953C275.99 234.953 276.51 235.603 276.51 236.673C276.51 237.743 276 238.393 275.19 238.393C274.38 238.393 273.87 237.743 273.87 236.673ZM281.24 239.293L283.16 234.043H281.92L280.65 237.853L279.37 234.043H278.11L280.03 239.293H281.24ZM287.86 238.033V235.433C287.86 234.483 287.12 233.943 285.89 233.943C284.68 233.943 283.76 234.483 283.72 235.693H284.89C284.92 235.233 285.19 234.983 285.82 234.983C286.36 234.983 286.69 235.153 286.69 235.623V235.883L285.24 236.183C284.23 236.393 283.48 236.833 283.48 237.833C283.48 238.773 284.25 239.383 285.25 239.383C285.794 239.412 286.328 239.229 286.74 238.873C286.74 239.023 286.74 239.163 286.77 239.293H287.94C287.882 238.875 287.855 238.454 287.86 238.033ZM286.69 237.443C286.69 238.083 286.07 238.423 285.43 238.423C284.97 238.423 284.67 238.193 284.67 237.783C284.67 237.313 285.05 237.153 285.56 237.043L286.69 236.803V237.443ZM290.48 232.113H289.28V239.293H290.48V232.113Z" fill="#A470F1"/>
</svg>
