<svg width="32" height="32" viewBox="0 0 32 32" fill="none" xmlns="http://www.w3.org/2000/svg">
<rect width="32" height="32" rx="4" fill="white"/>
<path d="M22.4242 12.1862C21.9674 12.3866 21.4765 12.5221 20.9605 12.5833C21.4929 12.2679 21.8913 11.7715 22.0812 11.1866C21.581 11.4808 21.0335 11.6879 20.4626 11.7988C20.0787 11.393 19.5702 11.124 19.016 11.0336C18.4619 10.9432 17.8931 11.0365 17.398 11.2989C16.9029 11.5614 16.5091 11.9783 16.2779 12.4851C16.0466 12.9918 15.9908 13.5599 16.1191 14.1013C15.1056 14.0509 14.114 13.7901 13.2089 13.3357C12.3037 12.8814 11.5052 12.2437 10.8651 11.464C10.6462 11.8378 10.5204 12.2712 10.5204 12.7328C10.5201 13.1483 10.6235 13.5575 10.8212 13.924C11.019 14.2905 11.3051 14.603 11.6541 14.8337C11.2494 14.821 10.8535 14.7127 10.4996 14.5179V14.5504C10.4995 15.1332 10.7031 15.698 11.0759 16.1491C11.4486 16.6002 11.9674 16.9097 12.5444 17.0251C12.1689 17.1258 11.7752 17.1406 11.3931 17.0685C11.5559 17.5699 11.873 18.0084 12.3 18.3226C12.727 18.6368 13.2425 18.8109 13.7744 18.8205C12.8715 19.5223 11.7564 19.903 10.6085 19.9013C10.4051 19.9014 10.202 19.8896 10 19.8661C11.1652 20.6079 12.5216 21.0015 13.9069 21C18.5962 21 21.1597 17.1546 21.1597 13.8196C21.1597 13.7112 21.157 13.6018 21.1521 13.4934C21.6507 13.1364 22.0811 12.6943 22.4232 12.1878L22.4242 12.1862Z" fill="#030911"/>
</svg>
