<svg width="32" height="32" viewBox="0 0 32 32" fill="none" xmlns="http://www.w3.org/2000/svg">
<rect width="32" height="32" rx="4" fill="white"/>
<path d="M19.0166 13.7861C21.5359 13.7861 22 15.4454 22 17.6045V22H19.5146V18.1016C19.5146 17.1726 19.4984 15.9766 18.2217 15.9766C16.9271 15.9766 16.7305 16.9903 16.7305 18.0361V21.999H14.2461V13.9844H16.6309V15.0801H16.665C16.9967 14.4509 17.8073 13.7862 19.0166 13.7861ZM12.6865 21.999H10.1982V13.9844H12.6865V21.999ZM11.4424 10C12.2387 10.0001 12.8846 10.6467 12.8848 11.4443C12.8848 12.2422 12.2388 12.8896 11.4424 12.8896C10.6459 12.8896 10 12.2422 10 11.4443C10.0002 10.6466 10.646 10 11.4424 10Z" fill="#030911"/>
</svg>
