<svg width="18" height="18" viewBox="0 0 18 18" fill="none" xmlns="http://www.w3.org/2000/svg">
<path d="M9.00586 0L8.61429 1.21521L9.21723 1.41276L9.00586 0Z" fill="#78828C"/>
<path d="M9.00586 0L9.39743 1.21521L8.79449 1.41276L9.00586 0Z" fill="#78828C"/>
<path d="M10.2148 0.882812L8.94698 0.882812L8.94698 1.52172L10.2148 0.882812Z" fill="#78828C"/>
<path d="M10.2148 0.882812L9.18912 1.63428L8.8167 1.11738L10.2148 0.882812Z" fill="#78828C"/>
<path d="M9.75391 2.31152L9.36234 1.09603L8.75954 1.29357L9.75391 2.31152Z" fill="#78828C"/>
<path d="M9.75391 2.31152L8.72849 1.56039L9.10108 1.04335L9.75391 2.31152Z" fill="#78828C"/>
<path d="M7.78516 0.882812L9.05319 0.882812L9.05319 1.52164L7.78516 0.882812Z" fill="#78828C"/>
<path d="M7.78516 0.882812L8.81074 1.63418L9.18322 1.11722L7.78516 0.882812Z" fill="#78828C"/>
<path d="M8.25391 2.31152L8.64556 1.09605L9.24837 1.29356L8.25391 2.31152Z" fill="#78828C"/>
<path d="M8.25391 2.31152L9.27927 1.56032L8.90671 1.04325L8.25391 2.31152Z" fill="#78828C"/>
<path d="M9.00586 15.332L8.61429 16.5472L9.21723 16.7448L9.00586 15.332Z" fill="#78828C"/>
<path d="M9.00586 15.332L9.39743 16.5472L8.79449 16.7448L9.00586 15.332Z" fill="#78828C"/>
<path d="M10.2148 16.2148L8.94698 16.2148L8.94698 16.8538L10.2148 16.2148Z" fill="#78828C"/>
<path d="M10.2148 16.2148L9.18912 16.9663L8.8167 16.4494L10.2148 16.2148Z" fill="#78828C"/>
<path d="M9.75391 17.6436L9.36234 16.4281L8.75954 16.6256L9.75391 17.6436Z" fill="#78828C"/>
<path d="M9.75391 17.6436L8.72849 16.8924L9.10108 16.3754L9.75391 17.6436Z" fill="#78828C"/>
<path d="M7.78516 16.2148L9.05319 16.2148L9.05319 16.8537L7.78516 16.2148Z" fill="#78828C"/>
<path d="M7.78516 16.2148L8.81074 16.9662L9.18322 16.4492L7.78516 16.2148Z" fill="#78828C"/>
<path d="M8.25391 17.6426L8.64556 16.4271L9.24837 16.6246L8.25391 17.6426Z" fill="#78828C"/>
<path d="M8.25391 17.6426L9.27927 16.8914L8.90671 16.3743L8.25391 17.6426Z" fill="#78828C"/>
<path d="M1.39453 7.66699L1.00296 8.8822L1.6059 9.07975L1.39453 7.66699Z" fill="#78828C"/>
<path d="M1.39453 7.66699L1.7861 8.8822L1.18316 9.07975L1.39453 7.66699Z" fill="#78828C"/>
<path d="M2.61719 8.55078L1.34933 8.55078L1.34933 9.18969L2.61719 8.55078Z" fill="#78828C"/>
<path d="M2.61719 8.55078L1.59147 9.30224L1.21904 8.78535L2.61719 8.55078Z" fill="#78828C"/>
<path d="M2.16016 9.97852L1.7685 8.76305L1.16569 8.96055L2.16016 9.97852Z" fill="#78828C"/>
<path d="M2.16016 9.97852L1.13479 9.22731L1.50735 8.71024L2.16016 9.97852Z" fill="#78828C"/>
<path d="M0.1875 8.5498L1.45536 8.5498L1.45536 9.18872L0.1875 8.5498Z" fill="#78828C"/>
<path d="M0.1875 8.5498L1.21322 9.30127L1.58565 8.78438L0.1875 8.5498Z" fill="#78828C"/>
<path d="M0.648438 9.97852L1.04001 8.76302L1.6428 8.96056L0.648438 9.97852Z" fill="#78828C"/>
<path d="M0.648438 9.97852L1.67385 9.22739L1.30126 8.71034L0.648438 9.97852Z" fill="#78828C"/>
<path d="M4.45312 3.33984L5.47854 2.58871L5.10595 2.07167L4.45312 3.33984Z" fill="#78828C"/>
<path d="M4.45312 3.33984L4.8447 2.12435L5.44749 2.32189L4.45312 3.33984Z" fill="#78828C"/>
<path d="M4.00977 1.91016L5.03531 2.66149L5.4078 2.14451L4.00977 1.91016Z" fill="#78828C"/>
<path d="M4.00977 1.91016L5.2774 1.91016L5.2774 2.54918L4.00977 1.91016Z" fill="#78828C"/>
<path d="M5.20898 1.02832L4.8173 2.24387L5.42007 2.44136L5.20898 1.02832Z" fill="#78828C"/>
<path d="M5.20898 1.02832L5.60066 2.24387L4.9979 2.44136L5.20898 1.02832Z" fill="#78828C"/>
<path d="M5.94531 3.33887L4.91981 2.58748L5.29228 2.07048L5.94531 3.33887Z" fill="#78828C"/>
<path d="M5.94531 3.33887L5.55352 2.12321L4.95081 2.32064L5.94531 3.33887Z" fill="#78828C"/>
<path d="M6.40234 1.91113L5.37691 2.66238L5.00438 2.14535L6.40234 1.91113Z" fill="#78828C"/>
<path d="M6.40234 1.91113L5.13484 1.91113L5.13484 2.55022L6.40234 1.91113Z" fill="#78828C"/>
<path d="M3.15234 6.14551L2.76069 4.93004L2.15788 5.12754L3.15234 6.14551Z" fill="#78828C"/>
<path d="M3.15234 6.14551L2.12698 5.39431L2.49954 4.87724L3.15234 6.14551Z" fill="#78828C"/>
<path d="M1.67188 6.14648L2.69742 5.39515L2.32492 4.87817L1.67188 6.14648Z" fill="#78828C"/>
<path d="M1.67188 6.14648L2.0636 4.9308L2.6663 5.12827L1.67188 6.14648Z" fill="#78828C"/>
<path d="M1.21289 4.71777L2.23832 5.46902L2.61085 4.95199L1.21289 4.71777Z" fill="#78828C"/>
<path d="M1.21289 4.71777L2.48039 4.71777L2.48039 5.35686L1.21289 4.71777Z" fill="#78828C"/>
<path d="M3.62305 4.7168L2.59746 5.46807L2.22494 4.95111L3.62305 4.7168Z" fill="#78828C"/>
<path d="M3.62305 4.7168L2.35541 4.71687L2.35537 5.35589L3.62305 4.7168Z" fill="#78828C"/>
<path d="M2.41211 3.83496L2.80379 5.05051L2.20102 5.248L2.41211 3.83496Z" fill="#78828C"/>
<path d="M2.41211 3.83496L2.02043 5.05051L2.6232 5.248L2.41211 3.83496Z" fill="#78828C"/>
<path d="M3.62109 12.3838L2.35323 12.3838L2.35323 13.0227L3.62109 12.3838Z" fill="#78828C"/>
<path d="M3.62109 12.3838L2.59537 13.1353L2.22295 12.6184L3.62109 12.3838Z" fill="#78828C"/>
<path d="M3.15039 13.8125L2.75878 12.5972L2.1559 12.7947L3.15039 13.8125Z" fill="#78828C"/>
<path d="M3.15039 13.8125L2.12514 13.0614L2.49773 12.5443L3.15039 13.8125Z" fill="#78828C"/>
<path d="M1.66797 13.8115L2.69351 13.0602L2.32102 12.5432L1.66797 13.8115Z" fill="#78828C"/>
<path d="M1.66797 13.8115L2.05969 12.5958L2.6624 12.7933L1.66797 13.8115Z" fill="#78828C"/>
<path d="M2.43555 11.5L2.82716 12.7153L2.22429 12.9129L2.43555 11.5Z" fill="#78828C"/>
<path d="M2.43555 11.5L2.04393 12.7153L2.64681 12.9129L2.43555 11.5Z" fill="#78828C"/>
<path d="M1.21289 12.3838L2.48053 12.3838L2.48053 13.0228L1.21289 12.3838Z" fill="#78828C"/>
<path d="M1.21289 12.3838L2.23843 13.1351L2.61092 12.6181L1.21289 12.3838Z" fill="#78828C"/>
<path d="M6.4082 15.1895L5.14034 15.1895L5.14034 15.8284L6.4082 15.1895Z" fill="#78828C"/>
<path d="M6.4082 15.1895L5.38248 15.9409L5.01005 15.424L6.4082 15.1895Z" fill="#78828C"/>
<path d="M5.92188 16.6172L5.53026 15.4018L4.92739 15.5994L5.92188 16.6172Z" fill="#78828C"/>
<path d="M5.92188 16.6172L4.89662 15.8661L5.26922 15.3489L5.92188 16.6172Z" fill="#78828C"/>
<path d="M4.44727 16.6182L5.47277 15.8668L5.1003 15.3498L4.44727 16.6182Z" fill="#78828C"/>
<path d="M4.44727 16.6182L4.83906 15.4025L5.44177 15.5999L4.44727 16.6182Z" fill="#78828C"/>
<path d="M5.18555 14.3057L5.57716 15.521L4.97429 15.7185L5.18555 14.3057Z" fill="#78828C"/>
<path d="M5.18555 14.3057L4.79393 15.521L5.39681 15.7185L5.18555 14.3057Z" fill="#78828C"/>
<path d="M4.00195 15.1885L5.26959 15.1885L5.26959 15.8275L4.00195 15.1885Z" fill="#78828C"/>
<path d="M4.00195 15.1885L5.02749 15.9398L5.39999 15.4228L4.00195 15.1885Z" fill="#78828C"/>
<path d="M16.6055 7.66699L16.997 8.8822L16.3941 9.07975L16.6055 7.66699Z" fill="#78828C"/>
<path d="M16.6055 7.66699L16.2139 8.8822L16.8168 9.07975L16.6055 7.66699Z" fill="#78828C"/>
<path d="M15.3965 8.5498L16.6643 8.5498L16.6643 9.18872L15.3965 8.5498Z" fill="#78828C"/>
<path d="M15.3965 8.5498L16.4222 9.30127L16.7946 8.78438L15.3965 8.5498Z" fill="#78828C"/>
<path d="M15.8574 9.97754L16.249 8.76204L16.8518 8.95959L15.8574 9.97754Z" fill="#78828C"/>
<path d="M15.8574 9.97754L16.8828 9.22641L16.5102 8.70937L15.8574 9.97754Z" fill="#78828C"/>
<path d="M17.8145 8.5498L16.5466 8.5498L16.5466 9.18872L17.8145 8.5498Z" fill="#78828C"/>
<path d="M17.8145 8.5498L16.7887 9.30127L16.4163 8.78438L17.8145 8.5498Z" fill="#78828C"/>
<path d="M17.3574 9.97754L16.9658 8.76207L16.363 8.95957L17.3574 9.97754Z" fill="#78828C"/>
<path d="M17.3574 9.97754L16.3321 9.22634L16.7046 8.70927L17.3574 9.97754Z" fill="#78828C"/>
<path d="M13.5508 3.33789L12.5254 2.58669L12.898 2.06962L13.5508 3.33789Z" fill="#78828C"/>
<path d="M13.5508 3.33789L13.1591 2.12242L12.5563 2.31992L13.5508 3.33789Z" fill="#78828C"/>
<path d="M14.002 1.91016L12.9764 2.66149L12.6039 2.14451L14.002 1.91016Z" fill="#78828C"/>
<path d="M14.002 1.91016L12.7343 1.91016L12.7343 2.54918L14.002 1.91016Z" fill="#78828C"/>
<path d="M12.7949 1.02637L13.1866 2.24192L12.5838 2.43941L12.7949 1.02637Z" fill="#78828C"/>
<path d="M12.7949 1.02637L12.4032 2.24192L13.006 2.43941L12.7949 1.02637Z" fill="#78828C"/>
<path d="M12.0605 3.33887L13.0861 2.58754L12.7136 2.07056L12.0605 3.33887Z" fill="#78828C"/>
<path d="M12.0605 3.33887L12.4523 2.12319L13.055 2.32066L12.0605 3.33887Z" fill="#78828C"/>
<path d="M11.5918 1.90918L12.6172 2.66045L12.9897 2.14341L11.5918 1.90918Z" fill="#78828C"/>
<path d="M11.5918 1.90918L12.8593 1.90915L12.8593 2.54824L11.5918 1.90918Z" fill="#78828C"/>
<path d="M14.8516 6.14551L15.2432 4.93004L15.846 5.12754L14.8516 6.14551Z" fill="#78828C"/>
<path d="M14.8516 6.14551L15.8769 5.39431L15.5044 4.87724L14.8516 6.14551Z" fill="#78828C"/>
<path d="M16.3398 6.14453L15.3143 5.39314L15.6868 4.87614L16.3398 6.14453Z" fill="#78828C"/>
<path d="M16.3398 6.14453L15.9481 4.92887L15.3453 5.12631L16.3398 6.14453Z" fill="#78828C"/>
<path d="M16.7871 4.71582L15.7617 5.46707L15.3891 4.95004L16.7871 4.71582Z" fill="#78828C"/>
<path d="M16.7871 4.71582L15.5196 4.71582L15.5196 5.35491L16.7871 4.71582Z" fill="#78828C"/>
<path d="M14.3945 4.71582L15.4201 5.46715L15.7926 4.95017L14.3945 4.71582Z" fill="#78828C"/>
<path d="M14.3945 4.71582L15.6622 4.71582L15.6622 5.35484L14.3945 4.71582Z" fill="#78828C"/>
<path d="M15.5938 3.83301L15.2021 5.04856L15.8048 5.24605L15.5938 3.83301Z" fill="#78828C"/>
<path d="M15.5938 3.83301L15.9854 5.04856L15.3827 5.24605L15.5938 3.83301Z" fill="#78828C"/>
<path d="M14.3867 12.3818L15.6546 12.3818L15.6546 13.0207L14.3867 12.3818Z" fill="#78828C"/>
<path d="M14.3867 12.3818L15.4124 13.1333L15.7849 12.6164L14.3867 12.3818Z" fill="#78828C"/>
<path d="M14.8594 13.8096L15.251 12.5942L15.8539 12.7918L14.8594 13.8096Z" fill="#78828C"/>
<path d="M14.8594 13.8096L15.8846 13.0584L15.512 12.5413L14.8594 13.8096Z" fill="#78828C"/>
<path d="M16.3379 13.8096L15.3124 13.0582L15.6849 12.5412L16.3379 13.8096Z" fill="#78828C"/>
<path d="M16.3379 13.8096L15.9461 12.5939L15.3434 12.7913L16.3379 13.8096Z" fill="#78828C"/>
<path d="M15.5762 11.499L15.1846 12.7144L15.7874 12.9119L15.5762 11.499Z" fill="#78828C"/>
<path d="M15.5762 11.499L15.9678 12.7144L15.3649 12.9119L15.5762 11.499Z" fill="#78828C"/>
<path d="M16.791 12.3828L15.5234 12.3829L15.5233 13.0219L16.791 12.3828Z" fill="#78828C"/>
<path d="M16.791 12.3828L15.7654 13.1341L15.3929 12.6171L16.791 12.3828Z" fill="#78828C"/>
<path d="M11.5977 15.1875L12.8655 15.1875L12.8655 15.8264L11.5977 15.1875Z" fill="#78828C"/>
<path d="M11.5977 15.1875L12.6234 15.939L12.9958 15.4221L11.5977 15.1875Z" fill="#78828C"/>
<path d="M12.0684 16.6152L12.46 15.3999L13.0628 15.5974L12.0684 16.6152Z" fill="#78828C"/>
<path d="M12.0684 16.6152L13.0936 15.8641L12.721 15.347L12.0684 16.6152Z" fill="#78828C"/>
<path d="M13.5508 16.6152L12.5252 15.8639L12.8977 15.3469L13.5508 16.6152Z" fill="#78828C"/>
<path d="M13.5508 16.6152L13.1591 15.3996L12.5564 15.597L13.5508 16.6152Z" fill="#78828C"/>
<path d="M12.8105 14.3037L12.4189 15.5191L13.0218 15.7166L12.8105 14.3037Z" fill="#78828C"/>
<path d="M12.8105 14.3037L13.2022 15.5191L12.5993 15.7166L12.8105 14.3037Z" fill="#78828C"/>
<path d="M13.998 15.1875L12.7304 15.1875L12.7304 15.8265L13.998 15.1875Z" fill="#78828C"/>
<path d="M13.998 15.1875L12.9725 15.9388L12.6 15.4219L13.998 15.1875Z" fill="#78828C"/>
</svg>
