<svg width="38" height="38" viewBox="0 0 38 38" fill="none" xmlns="http://www.w3.org/2000/svg">
<circle cx="19" cy="19" r="19" fill="white"/>
<path d="M17.4162 7.68759C18.2731 6.7708 19.7269 6.7708 20.5838 7.68759L22.0606 9.26771C22.488 9.72496 23.0921 9.9752 23.7176 9.95406L25.8792 9.88101C27.1333 9.83863 28.1614 10.8667 28.119 12.1208L28.0459 14.2824C28.0248 14.9079 28.275 15.512 28.7323 15.9394L30.3124 17.4162C31.2292 18.2731 31.2292 19.7269 30.3124 20.5838L28.7323 22.0606C28.275 22.488 28.0248 23.0921 28.0459 23.7176L28.119 25.8792C28.1614 27.1333 27.1333 28.1614 25.8792 28.119L23.7176 28.0459C23.0921 28.0248 22.488 28.275 22.0606 28.7323L20.5838 30.3124C19.7269 31.2292 18.2731 31.2292 17.4162 30.3124L15.9394 28.7323C15.512 28.275 14.9079 28.0248 14.2824 28.0459L12.1208 28.119C10.8667 28.1614 9.83863 27.1333 9.88101 25.8792L9.95406 23.7176C9.9752 23.0921 9.72496 22.488 9.26771 22.0606L7.68759 20.5838C6.7708 19.7269 6.7708 18.2731 7.68759 17.4162L9.26771 15.9394C9.72496 15.512 9.9752 14.9079 9.95406 14.2824L9.88101 12.1208C9.83863 10.8667 10.8667 9.83863 12.1208 9.88101L14.2824 9.95406C14.9079 9.9752 15.512 9.72496 15.9394 9.26771L17.4162 7.68759Z" fill="#00DDB5"/>
<circle cx="19.0703" cy="19.0713" r="8" fill="#00B191"/>
</svg>
