<svg width="80" height="80" viewBox="0 0 80 80" fill="none" xmlns="http://www.w3.org/2000/svg">
<mask id="mask0_623_19286" style="mask-type:luminance" maskUnits="userSpaceOnUse" x="0" y="0" width="80" height="80">
<path d="M80 0H0V80H80V0Z" fill="white"/>
</mask>
<g mask="url(#mask0_623_19286)">
<path fill-rule="evenodd" clip-rule="evenodd" d="M52.8544 65.8148C48.9728 72.2844 44.2788 75.2 40 75.2C35.721 75.2 31.0271 72.2844 27.1454 65.8148C23.321 59.4408 20.8 50.3252 20.8 40C20.8 29.6747 23.321 20.5593 27.1454 14.1853C31.0271 7.7158 35.721 4.8 40 4.8C44.2788 4.8 48.9728 7.7158 52.8544 14.1853C56.6788 20.5593 59.2 29.6747 59.2 40C59.2 50.3252 56.6788 59.4408 52.8544 65.8148ZM80 40C80 17.9086 62.0912 0 40 0C17.9086 0 0 17.9086 0 40C0 62.0912 17.9086 80 40 80C62.0912 80 80 62.0912 80 40ZM4.8 40C4.8 54.372 13.413 66.732 25.7589 72.2C19.8393 64.9156 16 53.2052 16 40C16 26.7949 19.8393 15.0843 25.7589 7.7998C13.413 13.268 4.8 25.6282 4.8 40ZM75.2 40C75.2 54.372 66.5868 66.732 54.2412 72.2C60.1608 64.9156 64 53.2052 64 40C64 26.7949 60.1608 15.0843 54.2412 7.7998C66.5868 13.268 75.2 25.6282 75.2 40ZM40 44.4C42.43 44.4 44.4 42.43 44.4 40C44.4 37.57 42.43 35.6 40 35.6C37.57 35.6 35.6 37.57 35.6 40C35.6 42.43 37.57 44.4 40 44.4Z" fill="#A470F1"/>
</g>
</svg>
