<svg width="24" height="24" viewBox="0 0 24 24" fill="none" xmlns="http://www.w3.org/2000/svg">
<circle cx="12" cy="12" r="12" fill="#F6F7FA"/>
<path fill-rule="evenodd" clip-rule="evenodd" d="M8.88448 7.4447C8.88448 8.24258 8.23877 8.8894 7.44224 8.8894C6.64571 8.8894 6 8.24258 6 7.4447C6 6.64681 6.64571 6 7.44224 6C8.23877 6 8.88448 6.64681 8.88448 7.4447ZM10.2463 17.9994V9.98422H12.6312V11.0803H12.6648C12.9964 10.451 13.8071 9.78613 15.0167 9.78613C17.536 9.78613 18 11.4454 18 13.6045V18H15.5144V14.1017C15.5144 13.1727 15.4985 11.9769 14.2217 11.9769C12.9271 11.9769 12.7307 12.9898 12.7307 14.0357V17.9994H10.2463ZM8.68611 9.98422H6.19778V17.9994H8.68611V9.98422Z" fill="#030911"/>
</svg>
