<svg width="234" height="14" viewBox="0 0 234 14" fill="none" xmlns="http://www.w3.org/2000/svg">
<path d="M205.042 0.160156C206.226 0.160156 207.261 0.394823 208.146 0.864156C209.031 1.33349 209.714 1.99482 210.194 2.84816C210.685 3.69082 210.93 4.66682 210.93 5.77616C210.93 6.87482 210.685 7.85082 210.194 8.70416C209.714 9.55749 209.026 10.2188 208.13 10.6882C207.245 11.1575 206.215 11.3922 205.042 11.3922H200.834V0.160156H205.042ZM204.866 9.02416C205.901 9.02416 206.706 8.74149 207.282 8.17616C207.858 7.61082 208.146 6.81082 208.146 5.77616C208.146 4.74149 207.858 3.93616 207.282 3.36016C206.706 2.78416 205.901 2.49616 204.866 2.49616H203.57V9.02416H204.866Z" fill="white"/>
<path d="M192.673 2.35216V4.62416H196.337V6.73616H192.673V9.20016H196.817V11.3922H189.938V0.160156H196.817V2.35216H192.673Z" fill="white"/>
<path d="M182.988 11.3922L180.652 7.15216H179.996V11.3922H177.26V0.160156H181.852C182.737 0.160156 183.489 0.314823 184.108 0.624156C184.737 0.933489 185.206 1.36016 185.516 1.90416C185.825 2.43749 185.98 3.03482 185.98 3.69616C185.98 4.44282 185.766 5.10949 185.34 5.69616C184.924 6.28282 184.305 6.69882 183.484 6.94416L186.076 11.3922H182.988ZM179.996 5.21616H181.692C182.193 5.21616 182.566 5.09349 182.812 4.84816C183.068 4.60282 183.196 4.25616 183.196 3.80816C183.196 3.38149 183.068 3.04549 182.812 2.80016C182.566 2.55482 182.193 2.43216 181.692 2.43216H179.996V5.21616Z" fill="white"/>
<path d="M173.037 0.160156V11.3922H170.301V0.160156H173.037Z" fill="white"/>
<path d="M159.468 0.160156V6.88016C159.468 7.55216 159.634 8.06949 159.964 8.43216C160.295 8.79482 160.78 8.97616 161.42 8.97616C162.06 8.97616 162.551 8.79482 162.892 8.43216C163.234 8.06949 163.404 7.55216 163.404 6.88016V0.160156H166.14V6.86416C166.14 7.86682 165.927 8.71482 165.5 9.40816C165.074 10.1015 164.498 10.6242 163.772 10.9762C163.058 11.3282 162.258 11.5042 161.372 11.5042C160.487 11.5042 159.692 11.3335 158.988 10.9922C158.295 10.6402 157.746 10.1175 157.34 9.42416C156.935 8.72016 156.732 7.86682 156.732 6.86416V0.160156H159.468Z" fill="white"/>
<path d="M149.931 13.312L148.491 11.376C148.064 11.4613 147.648 11.504 147.243 11.504C146.187 11.504 145.216 11.2587 144.331 10.768C143.456 10.2773 142.757 9.59467 142.235 8.72C141.723 7.83467 141.467 6.84267 141.467 5.744C141.467 4.64533 141.723 3.65867 142.235 2.784C142.757 1.90933 143.456 1.22667 144.331 0.736C145.216 0.245333 146.187 0 147.243 0C148.299 0 149.264 0.245333 150.139 0.736C151.024 1.22667 151.717 1.90933 152.219 2.784C152.731 3.65867 152.987 4.64533 152.987 5.744C152.987 6.704 152.789 7.584 152.395 8.384C152.011 9.17333 151.472 9.82933 150.779 10.352L153.243 13.312H149.931ZM144.267 5.744C144.267 6.736 144.533 7.53067 145.067 8.128C145.611 8.71467 146.336 9.008 147.243 9.008C148.139 9.008 148.853 8.70933 149.387 8.112C149.931 7.51467 150.203 6.72533 150.203 5.744C150.203 4.752 149.931 3.96267 149.387 3.376C148.853 2.77867 148.139 2.48 147.243 2.48C146.336 2.48 145.611 2.77333 145.067 3.36C144.533 3.94667 144.267 4.74133 144.267 5.744Z" fill="white"/>
<path d="M133.771 2.35216V4.62416H137.435V6.73616H133.771V9.20016H137.915V11.3922H131.035V0.160156H137.915V2.35216H133.771Z" fill="white"/>
<path d="M124.085 11.3922L121.749 7.15216H121.093V11.3922H118.357V0.160156H122.949C123.835 0.160156 124.587 0.314823 125.205 0.624156C125.835 0.933489 126.304 1.36016 126.613 1.90416C126.923 2.43749 127.077 3.03482 127.077 3.69616C127.077 4.44282 126.864 5.10949 126.437 5.69616C126.021 6.28282 125.403 6.69882 124.581 6.94416L127.173 11.3922H124.085ZM121.093 5.21616H122.789C123.291 5.21616 123.664 5.09349 123.909 4.84816C124.165 4.60282 124.293 4.25616 124.293 3.80816C124.293 3.38149 124.165 3.04549 123.909 2.80016C123.664 2.55482 123.291 2.43216 122.789 2.43216H121.093V5.21616Z" fill="white"/>
<path d="M103.069 0.160156C104.253 0.160156 105.288 0.394823 106.173 0.864156C107.059 1.33349 107.741 1.99482 108.221 2.84816C108.712 3.69082 108.957 4.66682 108.957 5.77616C108.957 6.87482 108.712 7.85082 108.221 8.70416C107.741 9.55749 107.053 10.2188 106.157 10.6882C105.272 11.1575 104.243 11.3922 103.069 11.3922H98.8613V0.160156H103.069ZM102.893 9.02416C103.928 9.02416 104.733 8.74149 105.309 8.17616C105.885 7.61082 106.173 6.81082 106.173 5.77616C106.173 4.74149 105.885 3.93616 105.309 3.36016C104.733 2.78416 103.928 2.49616 102.893 2.49616H101.597V9.02416H102.893Z" fill="white"/>
<path d="M91.9116 11.3922L89.5756 7.15216H88.9196V11.3922H86.1836V0.160156H90.7756C91.6609 0.160156 92.4129 0.314823 93.0316 0.624156C93.6609 0.933489 94.1303 1.36016 94.4396 1.90416C94.7489 2.43749 94.9036 3.03482 94.9036 3.69616C94.9036 4.44282 94.6903 5.10949 94.2636 5.69616C93.8476 6.28282 93.2289 6.69882 92.4076 6.94416L94.9996 11.3922H91.9116ZM88.9196 5.21616H90.6156C91.1169 5.21616 91.4903 5.09349 91.7356 4.84816C91.9916 4.60282 92.1196 4.25616 92.1196 3.80816C92.1196 3.38149 91.9916 3.04549 91.7356 2.80016C91.4903 2.55482 91.1169 2.43216 90.6156 2.43216H88.9196V5.21616Z" fill="white"/>
<path d="M79.1401 9.40816H74.9481L74.2761 11.3922H71.4121L75.4761 0.160156H78.6441L82.7081 11.3922H79.8121L79.1401 9.40816ZM78.4361 7.29616L77.0441 3.18416L75.6681 7.29616H78.4361Z" fill="white"/>
<path d="M57.2559 5.76023C57.2559 4.65089 57.4959 3.66423 57.9759 2.80023C58.4559 1.92556 59.1225 1.24823 59.9759 0.768227C60.8399 0.27756 61.8159 0.0322266 62.9039 0.0322266C64.2372 0.0322266 65.3785 0.384227 66.3279 1.08823C67.2772 1.79223 67.9119 2.75223 68.2319 3.96823H65.2239C64.9999 3.49889 64.6799 3.14156 64.2639 2.89623C63.8585 2.65089 63.3945 2.52823 62.8719 2.52823C62.0292 2.52823 61.3465 2.82156 60.8239 3.40823C60.3012 3.99489 60.0399 4.77889 60.0399 5.76023C60.0399 6.74156 60.3012 7.52556 60.8239 8.11223C61.3465 8.69889 62.0292 8.99223 62.8719 8.99223C63.3945 8.99223 63.8585 8.86956 64.2639 8.62423C64.6799 8.37889 64.9999 8.02156 65.2239 7.55223H68.2319C67.9119 8.76823 67.2772 9.72823 66.3279 10.4322C65.3785 11.1256 64.2372 11.4722 62.9039 11.4722C61.8159 11.4722 60.8399 11.2322 59.9759 10.7522C59.1225 10.2616 58.4559 9.58423 57.9759 8.72023C57.4959 7.85623 57.2559 6.86956 57.2559 5.76023Z" fill="white"/>
<path d="M42.5826 11.504C41.5266 11.504 40.556 11.2587 39.6706 10.768C38.796 10.2773 38.0973 9.59467 37.5746 8.72C37.0626 7.83467 36.8066 6.84267 36.8066 5.744C36.8066 4.64533 37.0626 3.65867 37.5746 2.784C38.0973 1.90933 38.796 1.22667 39.6706 0.736C40.556 0.245333 41.5266 0 42.5826 0C43.6386 0 44.604 0.245333 45.4786 0.736C46.364 1.22667 47.0573 1.90933 47.5586 2.784C48.0706 3.65867 48.3266 4.64533 48.3266 5.744C48.3266 6.84267 48.0706 7.83467 47.5586 8.72C47.0466 9.59467 46.3533 10.2773 45.4786 10.768C44.604 11.2587 43.6386 11.504 42.5826 11.504ZM42.5826 9.008C43.4786 9.008 44.1933 8.70933 44.7266 8.112C45.2706 7.51467 45.5426 6.72533 45.5426 5.744C45.5426 4.752 45.2706 3.96267 44.7266 3.376C44.1933 2.77867 43.4786 2.48 42.5826 2.48C41.676 2.48 40.9506 2.77333 40.4066 3.36C39.8733 3.94667 39.6066 4.74133 39.6066 5.744C39.6066 6.736 39.8733 7.53067 40.4066 8.128C40.9506 8.71467 41.676 9.008 42.5826 9.008Z" fill="white"/>
<path d="M33.048 11.3922H30.312L25.736 4.46416V11.3922H23V0.160156H25.736L30.312 7.12016V0.160156H33.048V11.3922Z" fill="white"/>
<rect x="13" width="4" height="12" fill="#A470F1"/>
<rect x="6" y="2" width="3" height="8" fill="#835AC1"/>
<rect y="4" width="2" height="4" fill="#835AC1"/>
<rect x="217" width="4" height="12" fill="#A470F1"/>
<rect x="225" y="2" width="3" height="8" fill="#835AC1"/>
<rect x="232" y="4" width="2" height="4" fill="#835AC1"/>
</svg>
