<svg width="96" height="12" viewBox="0 0 96 12" fill="none" xmlns="http://www.w3.org/2000/svg">
<path d="M68.7393 8.72171H72.9999V11.7381H65.4619V0.262695H72.9179V3.2463H68.7393V4.4922H72.5083V7.44302H68.7393V8.72171Z" fill="white"/>
<path d="M61.2046 0.262695V3.44302H58.5007V11.7381H55.2234V3.44302H52.5195V0.262695H61.2046Z" fill="white"/>
<path d="M47.3951 10.2787C46.2262 11.4262 44.7896 12 43.0854 12C41.3812 12 39.9391 11.4262 38.7593 10.2787C37.5903 9.12022 37.0059 7.69399 37.0059 6C37.0059 4.30601 37.5903 2.88525 38.7593 1.7377C39.9391 0.579235 41.3812 0 43.0854 0C44.7896 0 46.2262 0.579235 47.3951 1.7377C48.575 2.88525 49.1649 4.30601 49.1649 6C49.1649 7.69399 48.575 9.12022 47.3951 10.2787ZM41.0698 8C41.6051 8.52459 42.277 8.78689 43.0854 8.78689C43.8938 8.78689 44.5602 8.52459 45.0846 8C45.6199 7.46448 45.8876 6.79781 45.8876 6C45.8876 5.20219 45.6199 4.54098 45.0846 4.01639C44.5602 3.48087 43.8938 3.21311 43.0854 3.21311C42.277 3.21311 41.6051 3.48087 41.0698 4.01639C40.5454 4.54098 40.2832 5.20219 40.2832 6C40.2832 6.79781 40.5454 7.46448 41.0698 8Z" fill="white"/>
<path d="M29.227 0.262695H32.5044V11.7381H29.8825L26.2774 6.4922V11.7381H23V0.262695H25.6219L29.227 5.5086V0.262695Z" fill="white"/>
<rect x="13" width="4" height="12" fill="#A470F1"/>
<rect x="6" y="2" width="3" height="8" fill="#835AC1"/>
<rect y="4" width="2" height="4" fill="#624391"/>
<rect x="79" width="4" height="12" fill="#A470F1"/>
<rect x="87" y="2" width="3" height="8" fill="#835AC1"/>
<rect x="94" y="4" width="2" height="4" fill="#624391"/>
</svg>
