<svg width="80" height="80" viewBox="0 0 80 80" fill="none" xmlns="http://www.w3.org/2000/svg">
<mask id="mask0_2485_33760" style="mask-type:luminance" maskUnits="userSpaceOnUse" x="0" y="0" width="80" height="80">
<path d="M80 0H0V80H80V0Z" fill="white"/>
</mask>
<g mask="url(#mask0_2485_33760)">
<path fill-rule="evenodd" clip-rule="evenodd" d="M75.2 40C75.2 59.4404 59.4404 75.2 40 75.2C20.5596 75.2 4.8 59.4404 4.8 40C4.8 20.5596 20.5596 4.8 40 4.8C59.4404 4.8 75.2 20.5596 75.2 40ZM80 40C80 62.0912 62.0912 80 40 80C17.9086 80 0 62.0912 0 40C0 17.9086 17.9086 0 40 0C62.0912 0 80 17.9086 80 40ZM40 44.4C42.43 44.4 44.4 42.43 44.4 40C44.4 37.57 42.43 35.6 40 35.6C37.57 35.6 35.6 37.57 35.6 40C35.6 42.43 37.57 44.4 40 44.4Z" fill="#A470F1"/>
</g>
</svg>
