<svg width="32" height="20" viewBox="0 0 32 20" fill="none" xmlns="http://www.w3.org/2000/svg">
<rect x="0.5" y="0.5" width="31" height="19" rx="9.5" fill="#343B43" stroke="black"/>
<path fill-rule="evenodd" clip-rule="evenodd" d="M14 10C14 5.58154 17.5815 2 22 2C26.4185 2 30 5.58154 30 10C30 14.4185 26.4185 18 22 18C17.5815 18 14 14.4185 14 10ZM24.9621 8.51159C25.0113 8.44599 25.0469 8.37121 25.0668 8.29165C25.0867 8.21209 25.0906 8.12935 25.078 8.04829C25.0655 7.96723 25.0369 7.8895 24.9939 7.81965C24.9509 7.7498 24.8944 7.68925 24.8277 7.64156C24.761 7.59387 24.6854 7.55999 24.6054 7.54193C24.5254 7.52387 24.4426 7.52198 24.3618 7.53638C24.2811 7.55078 24.204 7.58117 24.1352 7.62577C24.0664 7.67038 24.0072 7.72829 23.961 7.7961L21.3058 11.513L19.9733 10.1805C19.8567 10.0718 19.7024 10.0126 19.543 10.0154C19.3835 10.0183 19.2314 10.0828 19.1187 10.1956C19.0059 10.3083 18.9413 10.4605 18.9385 10.6199C18.9357 10.7793 18.9949 10.9336 19.1036 11.0503L20.9497 12.8964C21.0129 12.9595 21.0891 13.0082 21.1729 13.0389C21.2568 13.0696 21.3463 13.0817 21.4353 13.0744C21.5243 13.0671 21.6106 13.0404 21.6883 12.9964C21.766 12.9523 21.8331 12.8919 21.8851 12.8193L24.9621 8.51159Z" fill="#00DDB5"/>
</svg>
