<svg width="32" height="32" viewBox="0 0 32 32" fill="none" xmlns="http://www.w3.org/2000/svg">
<mask id="mask0_1005_36531" style="mask-type:luminance" maskUnits="userSpaceOnUse" x="0" y="0" width="32" height="32">
<path d="M32 0H0V32H32V0Z" fill="white"/>
</mask>
<g mask="url(#mask0_1005_36531)">
<path fill-rule="evenodd" clip-rule="evenodd" d="M23.4194 5.53421C23.6206 5.04901 23.7235 4.52874 23.7224 4.00349C23.7227 3.2133 23.489 2.44072 23.0506 1.78328C22.6122 1.12584 21.989 0.613016 21.2594 0.309552C20.5298 0.00608849 19.7266 -0.0744122 18.9512 0.0782131C18.176 0.230838 17.4632 0.609747 16.903 1.1671L16.0006 2.00754L15.1043 1.16986C14.3537 0.420166 13.336 -0.000645746 12.2752 7.43795e-07C11.2143 0.000647234 10.1971 0.422699 9.44744 1.17331C8.69774 1.92392 8.27693 2.9416 8.27757 4.00248C8.27822 5.06334 8.70027 6.08051 9.45088 6.83021L15.6076 13.078C15.659 13.1301 15.7201 13.1715 15.7876 13.1997C15.8551 13.228 15.9275 13.2425 16.0006 13.2425C16.0738 13.2425 16.1462 13.228 16.2136 13.1997C16.2811 13.1715 16.3422 13.1301 16.3936 13.078L22.5504 6.83021C22.9229 6.4599 23.2182 6.01941 23.4194 5.53421ZM8.58058 26.4658C8.37939 26.951 8.27642 27.4712 8.27758 27.9965C8.27723 28.7867 8.51101 29.5594 8.94938 30.2168C9.38776 30.8742 10.0111 31.387 10.7407 31.6904C11.4703 31.9939 12.2734 32.0744 13.0487 31.9218C13.824 31.7691 14.5368 31.3902 15.0969 30.833L15.9994 29.9925L16.8957 30.8301C17.6462 31.5798 18.664 32.0006 19.7248 32C20.7858 31.9994 21.8029 31.5773 22.5526 30.8267C23.3022 30.0762 23.723 29.0584 23.7224 27.9976C23.7218 26.9366 23.2997 25.9195 22.5491 25.1698L16.3923 18.9221C16.3411 18.8699 16.2798 18.8285 16.2123 18.8003C16.145 18.772 16.0725 18.7574 15.9994 18.7574C15.9262 18.7574 15.8538 18.772 15.7864 18.8003C15.7189 18.8285 15.6577 18.8699 15.6064 18.9221L9.44965 25.1698C9.07714 25.5402 8.78174 25.9806 8.58058 26.4658ZM27.9965 23.7226C27.4712 23.7237 26.951 23.6206 26.4658 23.4195C25.9806 23.2184 25.5402 22.9229 25.1698 22.5504L18.9221 16.3938C18.8699 16.3424 18.8285 16.2811 18.8003 16.2138C18.772 16.1462 18.7574 16.0739 18.7574 16.0006C18.7574 15.9276 18.772 15.8552 18.8003 15.7877C18.8285 15.7202 18.8699 15.659 18.9221 15.6077L25.1698 9.45098C25.9195 8.70037 26.9366 8.2783 27.9976 8.27766C29.0584 8.27702 30.0762 8.69782 30.8267 9.44752C31.5773 10.1972 31.9994 11.2144 32 12.2753C32.0006 13.3361 31.5798 14.3538 30.8301 15.1044L29.9925 16.0006L30.833 16.9032C31.3902 17.4634 31.7691 18.176 31.9218 18.9514C32.0744 19.7267 31.9939 20.5298 31.6904 21.2594C31.387 21.989 30.8742 22.6123 30.2168 23.0507C29.5594 23.4891 28.7867 23.7229 27.9965 23.7226ZM5.53421 8.58048C5.04901 8.3793 4.52874 8.27632 4.00349 8.27749C3.2133 8.27714 2.4407 8.51091 1.78328 8.94928C1.12584 9.38766 0.613014 10.011 0.309552 10.7406C0.00608839 11.4702 -0.0744122 12.2733 0.078213 13.0486C0.230838 13.824 0.609746 14.5367 1.1671 15.0968L2.00754 15.9993L1.16986 16.8955C0.420165 17.6462 -0.000645758 18.6638 7.43828e-07 19.7248C0.000647246 20.7856 0.422698 21.8027 1.17331 22.5525C1.92392 23.3022 2.9416 23.723 4.00248 23.7224C5.06334 23.7218 6.08051 23.2997 6.83021 22.549L13.078 16.3923C13.1301 16.341 13.1715 16.2798 13.1997 16.2123C13.228 16.1448 13.2425 16.0725 13.2425 15.9993C13.2425 15.9261 13.228 15.8537 13.1997 15.7863C13.1715 15.7188 13.1301 15.6576 13.078 15.6063L6.83021 9.44955C6.4599 9.07704 6.01941 8.78165 5.53421 8.58048Z" fill="#030911"/>
</g>
</svg>
