<svg width="148" height="32" viewBox="0 0 148 32" fill="none" xmlns="http://www.w3.org/2000/svg">
<path d="M143.773 18.7215H148V21.7379H140.521V10.2625H147.919V13.2461H143.773V14.492H147.512V17.4428H143.773V18.7215Z" fill="black"/>
<path d="M136.298 10.2625V13.4428H133.616V21.7379H130.364V13.4428H127.682V10.2625H136.298Z" fill="black"/>
<path d="M122.596 20.2787C121.437 21.4262 120.011 22 118.321 22C116.63 22 115.199 21.4262 114.029 20.2787C112.869 19.1202 112.289 17.694 112.289 16C112.289 14.306 112.869 12.8852 114.029 11.7377C115.199 10.5792 116.63 10 118.321 10C120.011 10 121.437 10.5792 122.596 11.7377C123.767 12.8852 124.352 14.306 124.352 16C124.352 17.694 123.767 19.1202 122.596 20.2787ZM116.321 18C116.852 18.5246 117.519 18.7869 118.321 18.7869C119.123 18.7869 119.784 18.5246 120.304 18C120.835 17.4645 121.101 16.7978 121.101 16C121.101 15.2022 120.835 14.541 120.304 14.0164C119.784 13.4809 119.123 13.2131 118.321 13.2131C117.519 13.2131 116.852 13.4809 116.321 14.0164C115.801 14.541 115.541 15.2022 115.541 16C115.541 16.7978 115.801 17.4645 116.321 18Z" fill="black"/>
<path d="M104.572 10.2625H107.824V21.7379H105.223L101.646 16.492V21.7379H98.3945V10.2625H100.996L104.572 15.5084V10.2625Z" fill="black"/>
<path d="M90.0267 10.2625C91.2081 10.2625 92.1944 10.6395 92.9856 11.3936C93.7768 12.1368 94.1724 13.1313 94.1724 14.3772C94.1724 15.6231 93.7768 16.6231 92.9856 17.3772C92.1944 18.1204 91.2081 18.492 90.0267 18.492H88.7261V21.7379H85.4746V10.2625H90.0267ZM90.0267 15.3116C90.276 15.3116 90.4874 15.2297 90.6608 15.0657C90.8342 14.8909 90.9209 14.6614 90.9209 14.3772C90.9209 14.0931 90.8342 13.869 90.6608 13.7051C90.4874 13.5302 90.276 13.4428 90.0267 13.4428H88.7261V15.3116H90.0267Z" fill="black"/>
<path d="M77.3477 10.2625H80.5992V21.7379H77.3477V10.2625Z" fill="black"/>
<path d="M69.8045 21.7213L68 18.1147H67.1871V21.7213H63.9355V10.2458H68.4877C69.7341 10.2458 70.7637 10.6174 71.5766 11.3606C72.3895 12.0928 72.7959 13.0655 72.7959 14.2786C72.7959 14.9562 72.6388 15.5683 72.3245 16.1147C72.021 16.6611 71.5929 17.1038 71.0401 17.4426L73.2837 21.7213H69.8045ZM67.1871 13.2622V15.3934H68.4227C68.7695 15.4043 69.0404 15.3169 69.2355 15.1311C69.4415 14.9453 69.5444 14.683 69.5444 14.3442C69.5444 14.0054 69.4415 13.7431 69.2355 13.5573C69.0404 13.3606 68.7695 13.2622 68.4227 13.2622H67.1871Z" fill="black"/>
<path d="M54.8761 22C53.1636 22 51.7438 21.4262 50.6166 20.2787C49.4894 19.1311 48.9258 17.7049 48.9258 16C48.9258 14.2951 49.4894 12.8689 50.6166 11.7213C51.7438 10.5738 53.1636 10 54.8761 10C55.9274 10 56.8974 10.2514 57.7862 10.7541C58.6749 11.2568 59.3686 11.9344 59.8672 12.7869L57.0383 14.4262C56.8541 14.0546 56.5669 13.7596 56.1767 13.541C55.7865 13.3224 55.353 13.2131 54.8761 13.2131C54.074 13.2131 53.4237 13.4754 52.9252 14C52.4266 14.5246 52.1773 15.1913 52.1773 16C52.1773 16.8087 52.4266 17.4754 52.9252 18C53.4237 18.5246 54.074 18.7869 54.8761 18.7869C55.3638 18.7869 55.7973 18.6776 56.1767 18.459C56.5669 18.2404 56.8541 17.9399 57.0383 17.5574L59.8672 19.1967C59.3686 20.0601 58.6749 20.7432 57.7862 21.2459C56.8974 21.7486 55.9274 22 54.8761 22Z" fill="black"/>
<path d="M40.7472 22C39.5116 22 38.482 21.7432 37.6583 21.2295C36.8346 20.7049 36.2818 20 36 19.1148L38.7801 17.4918C39.1594 18.4645 39.8422 18.9508 40.8285 18.9508C41.5655 18.9508 41.934 18.7541 41.934 18.3607C41.934 18.2514 41.9069 18.153 41.8527 18.0656C41.7986 17.9781 41.6956 17.9016 41.5438 17.8361C41.3921 17.7705 41.2566 17.7213 41.1374 17.6885C41.029 17.6448 40.8339 17.5847 40.5521 17.5082C40.2703 17.4317 40.059 17.3716 39.9181 17.3279C37.6529 16.6393 36.5202 15.4098 36.5202 13.6393C36.5202 12.5902 36.8942 11.7213 37.642 11.0328C38.4007 10.3443 39.3924 10 40.6172 10C41.5818 10 42.4434 10.2295 43.2021 10.6885C43.9717 11.1475 44.5353 11.8087 44.8929 12.6721L42.1942 14.2623C41.8798 13.4536 41.3596 13.0492 40.6334 13.0492C40.3516 13.0492 40.1349 13.1093 39.9831 13.2295C39.8422 13.3388 39.7718 13.4809 39.7718 13.6557C39.7718 13.8962 39.8964 14.082 40.1457 14.2131C40.4058 14.3443 40.899 14.5137 41.6251 14.7213C42.1671 14.8852 42.6114 15.0437 42.9583 15.1967C43.3051 15.3388 43.6682 15.5464 44.0475 15.8197C44.4269 16.082 44.7087 16.4262 44.8929 16.8525C45.088 17.2678 45.1856 17.7596 45.1856 18.3279C45.1856 19.4973 44.7845 20.4044 43.9825 21.0492C43.1913 21.6831 42.1129 22 40.7472 22Z" fill="black"/>
<path d="M0 8H28V13L0 16V8Z" fill="#A470F1"/>
<path d="M13 0V6H4L13 0Z" fill="#A470F1"/>
<path d="M13 32V26L22 26.5L13 32Z" fill="#A470F1"/>
<path d="M9 17H25V25L9 22V17Z" fill="#A470F1"/>
</svg>
