<svg width="104" height="12" viewBox="0 0 104 12" fill="none" xmlns="http://www.w3.org/2000/svg">
<path d="M76.8666 0.262695C78.0445 0.262695 79.0279 0.639745 79.8167 1.39384C80.6056 2.13701 81 3.13155 81 4.37745C81 5.62335 80.6056 6.62335 79.8167 7.37745C79.0279 8.12062 78.0445 8.4922 76.8666 8.4922H75.5698V11.7381H72.3279V0.262695H76.8666ZM76.8666 5.31188C77.1151 5.31188 77.3259 5.22991 77.4988 5.06597C77.6717 4.89111 77.7581 4.6616 77.7581 4.37745C77.7581 4.0933 77.6717 3.86925 77.4988 3.70532C77.3259 3.53046 77.1151 3.44302 76.8666 3.44302H75.5698V5.31188H76.8666Z" fill="white"/>
<path d="M64.2263 0.262695H67.4682V11.7381H64.2263V0.262695Z" fill="white"/>
<path d="M56.7052 11.7215L54.9059 8.11495H54.0954V11.7215H50.8535V0.246094H55.3922C56.635 0.246094 57.6616 0.617679 58.472 1.36085C59.2825 2.09309 59.6878 3.06577 59.6878 4.27888C59.6878 4.95648 59.5311 5.5685 59.2177 6.11495C58.9151 6.66139 58.4883 7.10402 57.9371 7.44281L60.1741 11.7215H56.7052ZM54.0954 3.26249V5.39363H55.3274C55.6732 5.40456 55.9433 5.31713 56.1379 5.13134C56.3432 4.94555 56.4458 4.68325 56.4458 4.34445C56.4458 4.00566 56.3432 3.74336 56.1379 3.55757C55.9433 3.36085 55.6732 3.26249 55.3274 3.26249H54.0954Z" fill="white"/>
<path d="M41.8207 12C40.1133 12 38.6976 11.4262 37.5737 10.2787C36.4499 9.13115 35.8879 7.70492 35.8879 6C35.8879 4.29508 36.4499 2.86885 37.5737 1.72131C38.6976 0.573771 40.1133 0 41.8207 0C42.8689 0 43.8361 0.251366 44.7222 0.754098C45.6083 1.25683 46.2999 1.93443 46.797 2.78689L43.9765 4.42623C43.7928 4.05464 43.5065 3.75956 43.1174 3.54098C42.7284 3.3224 42.2961 3.21311 41.8207 3.21311C41.021 3.21311 40.3726 3.47541 39.8755 4C39.3784 4.52459 39.1299 5.19126 39.1299 6C39.1299 6.80874 39.3784 7.47541 39.8755 8C40.3726 8.52459 41.021 8.78689 41.8207 8.78689C42.307 8.78689 42.7392 8.6776 43.1174 8.45902C43.5065 8.24044 43.7928 7.93989 43.9765 7.55738L46.797 9.19672C46.2999 10.0601 45.6083 10.7432 44.7222 11.2459C43.8361 11.7486 42.8689 12 41.8207 12Z" fill="white"/>
<path d="M27.7332 12C26.5013 12 25.4747 11.7432 24.6534 11.2295C23.8321 10.7049 23.281 10 23 9.11475L25.7718 7.4918C26.1501 8.46448 26.8309 8.95082 27.8143 8.95082C28.5491 8.95082 28.9165 8.7541 28.9165 8.36066C28.9165 8.25137 28.8895 8.15301 28.8355 8.06557C28.7814 7.97814 28.6788 7.90164 28.5275 7.83607C28.3762 7.77049 28.2411 7.72131 28.1222 7.68853C28.0142 7.64481 27.8197 7.5847 27.5387 7.5082C27.2577 7.43169 27.047 7.37158 26.9065 7.32787C24.648 6.63934 23.5187 5.40984 23.5187 3.63934C23.5187 2.59016 23.8915 1.72131 24.6372 1.03279C25.3936 0.344262 26.3824 0 27.6035 0C28.5653 0 29.4244 0.229508 30.1809 0.688524C30.9481 1.14754 31.5101 1.80874 31.8667 2.67213L29.1759 4.26229C28.8625 3.45355 28.3438 3.04918 27.6197 3.04918C27.3388 3.04918 27.1226 3.10929 26.9714 3.22951C26.8309 3.3388 26.7606 3.48087 26.7606 3.65574C26.7606 3.89617 26.8849 4.08197 27.1335 4.21311C27.3928 4.34426 27.8845 4.51366 28.6085 4.72131C29.1489 4.88525 29.5919 5.04372 29.9377 5.19672C30.2835 5.3388 30.6455 5.54645 31.0238 5.81967C31.402 6.08197 31.683 6.42623 31.8667 6.85246C32.0612 7.26776 32.1584 7.75956 32.1584 8.32787C32.1584 9.49727 31.7586 10.4044 30.9589 11.0492C30.1701 11.6831 29.0948 12 27.7332 12Z" fill="white"/>
<rect x="13" width="4" height="12" fill="#A470F1"/>
<rect x="6" y="2" width="3" height="8" fill="#835AC1"/>
<rect y="4" width="2" height="4" fill="#835AC1"/>
<rect x="87" width="4" height="12" fill="#A470F1"/>
<rect x="95" y="2" width="3" height="8" fill="#835AC1"/>
<rect x="102" y="4" width="2" height="4" fill="#835AC1"/>
</svg>
