<svg width="40" height="28" viewBox="0 0 40 28" fill="none" xmlns="http://www.w3.org/2000/svg">
<path d="M33.24 13.1753C28.96 13.1753 24.15 10.1427 20 7.22283C15.6 4.10831 10.76 0 6.76 0C2.68 0 0 3.82144 0 7.22283V7.5097C0 12.9441 2.10714 18.1559 5.85786 21.9985C9.60859 25.8412 14.6957 28 20 28C25.3043 28 30.3914 25.8412 34.1421 21.9985C37.8929 18.1559 40 12.9441 40 7.5097C39.87 10.2554 37.97 13.1753 33.24 13.1753Z" fill="#56636F"/>
<path d="M33.24 0.00978618C29.24 0.00978618 24.4 4.10785 20 7.22237C15.85 10.1422 11.04 13.1646 6.76 13.1646C2.03 13.1646 0.13 10.2549 0 7.50924C0 12.9436 2.10714 18.1554 5.85786 21.9981C9.60859 25.8407 14.6957 27.9995 20 27.9995C25.3043 27.9995 30.3914 25.8407 34.1421 21.9981C37.8929 18.1554 40 12.9436 40 7.50924V7.22237C40 3.82098 37.33 -0.000458971 33.24 0.00978618Z" fill="#343B43"/>
<path d="M20 7.22266C24.15 10.1425 28.96 13.1648 33.24 13.1648C37.97 13.1648 39.87 10.2552 40 7.50952C40 12.9439 37.8929 18.1557 34.1421 21.9984C30.3914 25.841 25.3043 27.9998 20 27.9998C14.6957 27.9998 9.60859 25.841 5.85786 21.9984C2.10714 18.1557 0 12.9439 0 7.50952C0.13 10.2552 2.03 13.1751 6.76 13.1751C11.04 13.1751 15.85 10.1425 20 7.22266Z" fill="#454F59"/>
</svg>
