<svg width="80" height="80" viewBox="0 0 80 80" fill="none" xmlns="http://www.w3.org/2000/svg">
<mask id="mask0_2485_33770" style="mask-type:luminance" maskUnits="userSpaceOnUse" x="0" y="0" width="80" height="80">
<path d="M0 0L0 80H80V0H0Z" fill="white"/>
</mask>
<g mask="url(#mask0_2485_33770)">
<path fill-rule="evenodd" clip-rule="evenodd" d="M17.3023 69.8612L17.3022 80H22.6978V69.8612C22.6978 65.9048 25.905 62.6976 29.8614 62.6976H29.8809H40H50.1184H50.1388C54.0948 62.6976 57.3024 65.9048 57.3024 69.8612V80H62.6976V69.8612C62.6976 65.9048 65.9052 62.6976 69.8616 62.6976H69.8808H80V57.3024H69.8808H69.8616C65.9052 57.3024 62.6976 54.0952 62.6976 50.1388V40V29.8614C62.6976 25.905 65.9052 22.6977 69.8616 22.6977L69.8808 22.6977H80V17.3023H69.8808H69.8616C65.9052 17.3023 62.6976 14.095 62.6976 10.1386V0L57.3024 2.3584e-07V10.1386C57.3024 14.095 54.0948 17.3023 50.1388 17.3023H50.1192H40H29.8809H29.8614C25.905 17.3023 22.6978 14.095 22.6978 10.1386V1.74845e-06L17.3022 1.9843e-06V10.1386C17.3022 14.095 14.095 17.3023 10.1386 17.3023L10.1191 17.3023H0L3.002e-08 22.6977H10.1186L10.1386 22.6977C14.095 22.6977 17.3023 25.905 17.3023 29.8614L17.3022 40L17.3023 50.1388C17.3023 54.0952 14.095 57.3024 10.1386 57.3024H10.1191H0L3.002e-08 62.6976H10.1186H10.1386C14.095 62.6976 17.3023 65.9048 17.3023 69.8612ZM57.3024 40V29.8614C57.3024 25.905 54.0948 22.6977 50.1388 22.6977L50.1184 22.6977H40H29.8809L29.8614 22.6977C25.905 22.6977 22.6978 25.905 22.6978 29.8614V40V50.1388C22.6978 54.0952 25.905 57.3024 29.8614 57.3024H29.8809H40H50.1192H50.1388C54.0948 57.3024 57.3024 54.0952 57.3024 50.1388V40Z" fill="#A470F1"/>
</g>
</svg>
