<svg width="24" height="24" viewBox="0 0 24 24" fill="none" xmlns="http://www.w3.org/2000/svg">
<circle cx="12" cy="12" r="12" fill="#F6F7FA"/>
<path d="M18.4242 8.18618C17.9674 8.38663 17.4765 8.52207 16.9605 8.58329C17.4929 8.26788 17.8913 7.77145 18.0812 7.18664C17.581 7.48081 17.0335 7.68787 16.4626 7.79883C16.0787 7.39298 15.5702 7.12398 15.016 7.03358C14.4619 6.94319 13.8931 7.03647 13.398 7.29892C12.9029 7.56138 12.5091 7.97834 12.2779 8.48507C12.0466 8.9918 11.9908 9.55994 12.1191 10.1013C11.1056 10.0509 10.114 9.79008 9.20889 9.33574C8.30374 8.8814 7.5052 8.2437 6.86509 7.46402C6.64622 7.83783 6.52037 8.27124 6.52037 8.73281C6.52012 9.14834 6.62347 9.5575 6.82125 9.92399C7.01902 10.2905 7.30511 10.603 7.65412 10.8337C7.24936 10.821 6.85353 10.7127 6.49957 10.5179V10.5504C6.49953 11.1332 6.70314 11.698 7.07585 12.1491C7.44856 12.6002 7.96742 12.9097 8.54438 13.0251C8.1689 13.1258 7.77523 13.1406 7.39312 13.0685C7.5559 13.5699 7.87299 14.0084 8.29999 14.3226C8.727 14.6368 9.24254 14.8109 9.77444 14.8205C8.8715 15.5223 7.75638 15.903 6.60846 15.9013C6.40512 15.9014 6.20195 15.8896 6 15.8661C7.1652 16.6079 8.52159 17.0015 9.90686 17C14.5962 17 17.1597 13.1546 17.1597 9.81957C17.1597 9.71122 17.157 9.60179 17.1521 9.49344C17.6507 9.13641 18.0811 8.69429 18.4232 8.18781L18.4242 8.18618Z" fill="#030911"/>
</svg>
